<svg height="537pt" viewBox="-74 -17 537 537.34443" width="537pt" xmlns="http://www.w3.org/2000/svg"><path d="m219.757812 84.957031c2.789063 6.3125 10.171876 9.171875 16.488282 6.378907 6.3125-2.789063 9.171875-10.171876 6.378906-16.488282-7.4375-16.832031-22.546875-29.042968-40.5625-32.789062-6.761719-1.390625-13.371094 2.960937-14.761719 9.71875-1.390625 6.761718 2.960938 13.371094 9.71875 14.761718 10.109375 2.109376 18.574219 8.96875 22.738281 18.417969zm0 0"/><path d="m58.613281 487.898438c35.429688 10.230468 82.324219 15.863281 132.027344 15.863281 49.699219 0 96.597656-5.632813 132.023437-15.863281 41.332032-11.925782 62.285157-28.457032 62.285157-49.109376 0-20.65625-20.953125-37.191406-62.285157-49.121093-32.445312-9.371094-74.507812-14.863281-119.527343-15.726563v-179.777344c21.203125-2.554687 40.945312-12.128906 56.066406-27.210937 32.355469-31.808594 38.46875-81.738281 14.761719-120.421875-23.714844-38.679688-70.984375-55.882812-114.011719-41.484375-43.027344 14.402344-70.421875 56.585937-66.078125 101.75s39.285156 81.351563 84.269531 87.285156v179.855469c-45.023437.863281-87.085937 6.359375-119.53125 15.726562-41.328125 11.929688-62.28125 28.457032-62.28125 49.121094 0 20.65625 20.953125 37.1875 62.28125 49.113282zm59.804688-390.199219c.152343-32.667969 22.214843-61.164063 53.804687-69.496094 31.582032-8.335937 64.828125 5.574219 81.074219 33.914063 16.246094 28.339843 11.445313 64.058593-11.707031 87.101562-13.367188 13.328125-31.492188 20.773438-50.363282 20.699219h-.585937c-39.867187-.042969-72.179687-32.355469-72.222656-72.21875zm-52.863281 315.976562c30.300781-8.75 69.910156-13.894531 112.589843-14.742187v29.203125c0 6.902343 5.59375 12.5 12.496094 12.5s12.496094-5.597657 12.496094-12.5v-29.203125c42.6875.847656 82.292969 6 112.597656 14.746094 36.277344 10.472656 44.21875 21.671874 44.21875 25.105468 0 3.429688-7.941406 14.632813-44.21875 25.105469-33.246094 9.589844-77.671875 14.878906-125.09375 14.878906-47.425781 0-91.851563-5.289062-125.085937-14.882812-36.28125-10.472657-44.226563-21.675781-44.226563-25.101563 0-3.433594 7.9375-14.632812 44.226563-25.109375zm0 0"/></svg>